<?xml version="1.0" encoding="utf-8"?>

<svg width="16px" height="16px" viewBox="0 0 16 16" version="1.1" xmlns="http://www.w3.org/2000/svg" xmlns:xlink="http://www.w3.org/1999/xlink" fill="rgb(79, 136, 182)">
<path fill="rgb(79, 136, 182)" d="M16 5c0-0.6-0.4-1-1-1h-14c-0.6 0-1 0.4-1 1v6c0 0.6 0.4 1 1 1h14c0.6 0 1-0.4 1-1v-6zM15 11h-14v-6h14v6z"></path>
<path fill="rgb(79, 136, 182)" d="M6 8c0 0.552-0.448 1-1 1s-1-0.448-1-1c0-0.552 0.448-1 1-1s1 0.448 1 1z"></path>
<path fill="rgb(79, 136, 182)" d="M9 8c0 0.552-0.448 1-1 1s-1-0.448-1-1c0-0.552 0.448-1 1-1s1 0.448 1 1z"></path>
<path fill="rgb(79, 136, 182)" d="M12 8c0 0.552-0.448 1-1 1s-1-0.448-1-1c0-0.552 0.448-1 1-1s1 0.448 1 1z"></path>
</svg>
